<svg xmlns="http://www.w3.org/2000/svg" xmlns:xlink="http://www.w3.org/1999/xlink" width="500" zoomAndPan="magnify" viewBox="0 0 375 374.999991" height="500" preserveAspectRatio="xMidYMid meet" version="1.0"><defs><g/><clipPath id="e069bd47b4"><path d="M 37.5 206.960938 L 239.101562 206.960938 L 239.101562 217.335938 L 37.5 217.335938 Z M 37.5 206.960938 " clip-rule="nonzero"/></clipPath><clipPath id="588bff2a72"><path d="M 246.164062 148.265625 L 337.5 148.265625 L 337.5 158.746094 L 246.164062 158.746094 Z M 246.164062 148.265625 " clip-rule="nonzero"/></clipPath></defs><g clip-path="url(#e069bd47b4)"><path fill="#ffffff" d="M 37.5 206.960938 L 239.089844 206.960938 L 239.089844 217.335938 L 37.5 217.335938 Z M 37.5 206.960938 " fill-opacity="1" fill-rule="nonzero"/></g><g clip-path="url(#588bff2a72)"><path fill="#ffffff" d="M 246.164062 148.265625 L 337.511719 148.265625 L 337.511719 158.746094 L 246.164062 158.746094 Z M 246.164062 148.265625 " fill-opacity="1" fill-rule="nonzero"/></g><g fill="#ffffff" fill-opacity="1"><g transform="translate(32.761606, 186.745851)"><g><path d="M 16.4375 -42.46875 L 27.765625 -12.71875 L 39.234375 -42.46875 L 50.625 -42.46875 L 50.625 0 L 43.421875 0 L 43.421875 -35.265625 L 43.3125 -35.265625 L 30.40625 0 L 25.140625 0 L 12.234375 -35.265625 L 12.109375 -35.265625 L 12.109375 0 L 4.921875 0 L 4.921875 -42.46875 Z M 16.4375 -42.46875 "/></g></g></g><g fill="#ffffff" fill-opacity="1"><g transform="translate(100.726241, 186.745851)"><g><path d="M 32.875 -42.46875 L 32.875 -35.625 L 12.296875 -35.625 L 12.296875 -25.1875 L 31.796875 -25.1875 L 31.796875 -18.359375 L 12.296875 -18.359375 L 12.296875 -6.84375 L 33.953125 -6.84375 L 33.953125 0 L 4.734375 0 L 4.734375 -42.46875 Z M 32.875 -42.46875 "/></g></g></g><g fill="#ffffff" fill-opacity="1"><g transform="translate(149.795494, 186.745851)"><g><path d="M 34.015625 -42.46875 L 34.015625 -35.625 L 21 -35.625 L 21 0 L 13.4375 0 L 13.4375 -35.625 L 0.421875 -35.625 L 0.421875 -42.46875 Z M 34.015625 -42.46875 "/></g></g></g><g fill="#ffffff" fill-opacity="1"><g transform="translate(196.645283, 186.745851)"><g><path d="M 25.015625 -42.46875 L 43.3125 0 L 34.671875 0 L 30.71875 -9.71875 L 12.296875 -9.71875 L 8.453125 0 L 0 0 L 18.46875 -42.46875 Z M 14.875 -16.203125 L 28.078125 -16.203125 L 21.53125 -33.46875 Z M 14.875 -16.203125 "/></g></g></g><g fill="#ffffff" fill-opacity="1"><g transform="translate(251.603074, 215.865089)"><g><path d="M 23.15625 -43.546875 L 4.4375 2.875 L -0.546875 1.078125 L 18.171875 -45.46875 Z M 23.15625 -43.546875 "/></g></g></g><g fill="#ffffff" fill-opacity="1"><g transform="translate(287.352137, 215.865089)"><g><path d="M 18.296875 -29.515625 C 22.617188 -29.515625 25.945312 -28.070312 28.28125 -25.1875 C 30.625 -22.3125 31.796875 -18.554688 31.796875 -13.921875 L 31.796875 -11.875 L 9.84375 -11.875 C 10.082031 -9.789062 10.910156 -8.128906 12.328125 -6.890625 C 13.742188 -5.648438 15.492188 -5.03125 17.578125 -5.03125 C 20.617188 -5.03125 23.195312 -6.332031 25.3125 -8.9375 L 30.46875 -5.03125 C 27.351562 -1.195312 23.296875 0.71875 18.296875 0.71875 C 13.898438 0.71875 10.191406 -0.675781 7.171875 -3.46875 C 4.148438 -6.269531 2.640625 -9.910156 2.640625 -14.390625 C 2.640625 -18.867188 4.148438 -22.507812 7.171875 -25.3125 C 10.191406 -28.113281 13.898438 -29.515625 18.296875 -29.515625 Z M 24.59375 -17.28125 C 24.550781 -19.550781 23.847656 -21.253906 22.484375 -22.390625 C 21.128906 -23.535156 19.375 -24.109375 17.21875 -24.109375 C 15.050781 -24.109375 13.347656 -23.476562 12.109375 -22.21875 C 10.867188 -20.957031 10.113281 -19.3125 9.84375 -17.28125 Z M 24.59375 -17.28125 "/></g></g></g></svg>